<?xml version="1.0" encoding="UTF-8" standalone="no"?>
<!-- Created with Inkscape (http://www.inkscape.org/) -->

<svg
   width="49.327072mm"
   height="49.327072mm"
   viewBox="0 0 49.327072 49.327072"
   version="1.1"
   id="svg1"
   inkscape:version="1.3.2 (091e20e, 2023-11-25)"
   sodipodi:docname="logo.svg"
   inkscape:export-filename="logo.png"
   inkscape:export-xdpi="102.98605"
   inkscape:export-ydpi="102.98605"
   xmlns:inkscape="http://www.inkscape.org/namespaces/inkscape"
   xmlns:sodipodi="http://sodipodi.sourceforge.net/DTD/sodipodi-0.dtd"
   xmlns="http://www.w3.org/2000/svg"
   xmlns:svg="http://www.w3.org/2000/svg">
  <sodipodi:namedview
     id="namedview1"
     pagecolor="#ffffff"
     bordercolor="#000000"
     borderopacity="0.25"
     inkscape:showpageshadow="2"
     inkscape:pageopacity="0.0"
     inkscape:pagecheckerboard="0"
     inkscape:deskcolor="#d1d1d1"
     inkscape:document-units="mm"
     inkscape:zoom="0.91508388"
     inkscape:cx="109.826"
     inkscape:cy="110.3724"
     inkscape:window-width="1712"
     inkscape:window-height="1041"
     inkscape:window-x="0"
     inkscape:window-y="66"
     inkscape:window-maximized="0"
     inkscape:current-layer="layer1" />
  <defs
     id="defs1" />
  <g
     inkscape:label="Layer 1"
     inkscape:groupmode="layer"
     id="layer1"
     transform="translate(-59.781454,-42.769826)">
    <g
       id="g7"
       featurekey="phAakL-0"
       transform="matrix(0.56960384,0,0,0.56960384,55.964798,38.95317)"
       fill="#c8e7ed"
       style="fill:#008000">
      <g
         id="g6"
         style="fill:#008000">
        <path
           d="M 73.4,68.1 90,64 45.8,45.8 64,90 68.2,73.4 80.6,85.8 c 0.7,0.7 1.8,0.7 2.4,0 L 85.8,83 c 0.7,-0.7 0.7,-1.8 0,-2.4 z"
           id="path5"
           style="fill:#008000" />
        <path
           d="m 54.6,76.1 c 0.3,-0.4 0.6,-0.8 0.8,-1.2 l -2.1,-5.1 c -2.3,4.8 -5.1,7.6 -7.5,7.6 -2.5,0 -5.4,-3 -7.7,-8 -1.1,-2.3 -2,-4.9 -2.6,-7.8 3.3,0.5 6.8,0.7 10.4,0.7 1.5,0 3,0 4.4,-0.1 L 48.6,58 c -0.9,0 -1.8,0 -2.7,0 C 42,58 38.2,57.7 34.6,57.1 34,53.5 33.7,49.7 33.7,45.8 c 0,-3.9 0.3,-7.7 0.9,-11.3 3.6,-0.6 7.4,-0.9 11.3,-0.9 3.9,0 7.7,0.3 11.3,0.9 0.6,3.6 0.9,7.4 0.9,11.3 0,0.9 0,1.8 0,2.6 l 4.2,1.7 c 0.1,-1.4 0.1,-2.9 0.1,-4.4 0,-3.6 -0.2,-7.1 -0.7,-10.4 2.8,0.7 5.4,1.6 7.8,2.6 5,2.3 8,5.2 8,7.7 0,2.5 -2.8,5.3 -7.5,7.5 l 5.1,2.1 c 0.4,-0.3 0.8,-0.5 1.2,-0.8 -0.1,0.4 -0.2,0.8 -0.4,1.1 l 4,1.6 C 81.1,53.5 81.8,49.6 81.8,45.5 81.6,26 65.6,10 45.8,10 26,10 10,26 10,45.8 c 0,19.8 16,35.8 35.8,35.8 4.1,0 8,-0.7 11.6,-1.9 l -1.6,-4 c -0.4,0.1 -0.8,0.2 -1.2,0.4 z M 68.1,23.5 c 3.8,3.8 6.5,8.4 8,13.5 -3.7,-2.7 -9,-4.8 -15.3,-6.2 -1.3,-6.3 -3.5,-11.6 -6.2,-15.3 5,1.5 9.6,4.2 13.5,8 z M 45.8,14.3 c 2.5,0 5.4,3 7.7,8 1.1,2.3 2,4.9 2.6,7.8 -3.3,-0.5 -6.8,-0.7 -10.4,-0.7 -3.6,0 -7.1,0.2 -10.4,0.7 0.7,-2.8 1.6,-5.4 2.6,-7.8 2.4,-5 5.3,-8 7.9,-8 z m -22.3,9.2 c 3.8,-3.8 8.4,-6.5 13.5,-8 -2.7,3.7 -4.8,9 -6.2,15.3 -6.3,1.3 -11.6,3.5 -15.3,6.2 1.5,-5 4.2,-9.6 8,-13.5 z m -1.2,14.6 c 2.3,-1.1 4.9,-2 7.8,-2.6 -0.5,3.3 -0.7,6.8 -0.7,10.4 0,3.6 0.2,7.1 0.7,10.4 -2.8,-0.7 -5.4,-1.6 -7.8,-2.6 -5,-2.3 -8,-5.2 -8,-7.7 0,-2.5 3,-5.6 8,-7.9 z m 1.2,30 c -3.8,-3.8 -6.5,-8.4 -8,-13.5 3.7,2.7 9,4.8 15.3,6.2 1.3,6.3 3.5,11.6 6.2,15.3 -5,-1.5 -9.7,-4.2 -13.5,-8 z"
           id="path6"
           style="fill:#008000" />
      </g>
    </g>
  </g>
</svg>
