<?xml version="1.0" encoding="UTF-8" standalone="no"?>
<svg
   width="219.6"
   height="125.91266536453612"
   viewBox="0 0 350 200.68047758464317"
   class="looka-1j8o68f"
   version="1.1"
   id="svg4"
   sodipodi:docname="new_logo.svg"
   inkscape:version="1.3.2 (091e20e, 2023-11-25)"
   xmlns:inkscape="http://www.inkscape.org/namespaces/inkscape"
   xmlns:sodipodi="http://sodipodi.sourceforge.net/DTD/sodipodi-0.dtd"
   xmlns="http://www.w3.org/2000/svg"
   xmlns:svg="http://www.w3.org/2000/svg">
  <sodipodi:namedview
     id="namedview4"
     pagecolor="#ffffff"
     bordercolor="#000000"
     borderopacity="0.25"
     inkscape:showpageshadow="2"
     inkscape:pageopacity="0.0"
     inkscape:pagecheckerboard="0"
     inkscape:deskcolor="#d1d1d1"
     inkscape:zoom="4.4748169"
     inkscape:cx="115.08851"
     inkscape:cy="57.432517"
     inkscape:window-width="1712"
     inkscape:window-height="1069"
     inkscape:window-x="0"
     inkscape:window-y="38"
     inkscape:window-maximized="0"
     inkscape:current-layer="svg4" />
  <defs
     id="SvgjsDefs1786" />
  <g
     id="SvgjsG1787"
     featurekey="phAakL-0"
     transform="matrix(0.90789138,0,0,0.90789138,132.61994,20.969096)"
     fill="#c8e7ed"
     style="fill:#d45500">
    <g
       id="g2"
       style="fill:#d45500">
      <path
         d="M 73.4,68.1 90,64 45.8,45.8 64,90 68.2,73.4 80.6,85.8 c 0.7,0.7 1.8,0.7 2.4,0 L 85.8,83 c 0.7,-0.7 0.7,-1.8 0,-2.4 z"
         id="path1"
         style="fill:#d45500" />
      <path
         d="m 54.6,76.1 c 0.3,-0.4 0.6,-0.8 0.8,-1.2 l -2.1,-5.1 c -2.3,4.8 -5.1,7.6 -7.5,7.6 -2.5,0 -5.4,-3 -7.7,-8 -1.1,-2.3 -2,-4.9 -2.6,-7.8 3.3,0.5 6.8,0.7 10.4,0.7 1.5,0 3,0 4.4,-0.1 L 48.6,58 c -0.9,0 -1.8,0 -2.7,0 C 42,58 38.2,57.7 34.6,57.1 34,53.5 33.7,49.7 33.7,45.8 c 0,-3.9 0.3,-7.7 0.9,-11.3 3.6,-0.6 7.4,-0.9 11.3,-0.9 3.9,0 7.7,0.3 11.3,0.9 0.6,3.6 0.9,7.4 0.9,11.3 0,0.9 0,1.8 0,2.6 l 4.2,1.7 c 0.1,-1.4 0.1,-2.9 0.1,-4.4 0,-3.6 -0.2,-7.1 -0.7,-10.4 2.8,0.7 5.4,1.6 7.8,2.6 5,2.3 8,5.2 8,7.7 0,2.5 -2.8,5.3 -7.5,7.5 l 5.1,2.1 c 0.4,-0.3 0.8,-0.5 1.2,-0.8 -0.1,0.4 -0.2,0.8 -0.4,1.1 l 4,1.6 C 81.1,53.5 81.8,49.6 81.8,45.5 81.6,26 65.6,10 45.8,10 26,10 10,26 10,45.8 c 0,19.8 16,35.8 35.8,35.8 4.1,0 8,-0.7 11.6,-1.9 l -1.6,-4 c -0.4,0.1 -0.8,0.2 -1.2,0.4 z M 68.1,23.5 c 3.8,3.8 6.5,8.4 8,13.5 -3.7,-2.7 -9,-4.8 -15.3,-6.2 -1.3,-6.3 -3.5,-11.6 -6.2,-15.3 5,1.5 9.6,4.2 13.5,8 z M 45.8,14.3 c 2.5,0 5.4,3 7.7,8 1.1,2.3 2,4.9 2.6,7.8 -3.3,-0.5 -6.8,-0.7 -10.4,-0.7 -3.6,0 -7.1,0.2 -10.4,0.7 0.7,-2.8 1.6,-5.4 2.6,-7.8 2.4,-5 5.3,-8 7.9,-8 z m -22.3,9.2 c 3.8,-3.8 8.4,-6.5 13.5,-8 -2.7,3.7 -4.8,9 -6.2,15.3 -6.3,1.3 -11.6,3.5 -15.3,6.2 1.5,-5 4.2,-9.6 8,-13.5 z m -1.2,14.6 c 2.3,-1.1 4.9,-2 7.8,-2.6 -0.5,3.3 -0.7,6.8 -0.7,10.4 0,3.6 0.2,7.1 0.7,10.4 -2.8,-0.7 -5.4,-1.6 -7.8,-2.6 -5,-2.3 -8,-5.2 -8,-7.7 0,-2.5 3,-5.6 8,-7.9 z m 1.2,30 c -3.8,-3.8 -6.5,-8.4 -8,-13.5 3.7,2.7 9,4.8 15.3,6.2 1.3,6.3 3.5,11.6 6.2,15.3 -5,-1.5 -9.7,-4.2 -13.5,-8 z"
         id="path2"
         style="fill:#d45500" />
    </g>
  </g>
  <g
     id="SvgjsG1788"
     featurekey="fNbRbf-0"
     transform="matrix(1.5327376,0,0,1.5327376,66.560919,107.24507)"
     fill="#ffffc2"
     style="fill:#4d4d4d">
    <path
       d="m 6.58,17.3 h 3.46 q 0,0.8 -0.1,1.37 -0.1,0.57 -0.64,0.98 -0.54,0.41 -1.42,0.41 H 3.36 Q 2.5,20.06 2,19.56 1.5,19.06 1.5,18.2 V 6.34 L 1.64,6.2 h 1.18 q 1.88,0 1.88,2.04 v 9.14 Q 5.58,17.3 6.58,17.3 Z m 13.54,1.26 q -0.1,0.42 -0.38,0.9 -0.28,0.48 -0.58,0.7 -1.4,-0.04 -2.16,-1.06 -1.3,1.2 -2.82,1.2 -0.78,0 -1.36,-0.25 -0.58,-0.25 -0.98,-0.67 -0.4,-0.42 -0.6,-0.97 -0.2,-0.55 -0.2,-1.15 0,-0.86 0.31,-1.51 0.31,-0.65 0.85,-1.08 0.54,-0.43 1.26,-0.65 0.72,-0.22 1.54,-0.22 0.46,0 0.81,0.01 0.35,0.01 0.61,0.03 v -0.38 q 0,-1.26 -1.3,-1.26 -0.84,0 -2.94,0.64 -0.6,-0.7 -0.76,-2.18 0.48,-0.18 1.07,-0.34 0.59,-0.16 1.21,-0.28 0.62,-0.12 1.22,-0.19 0.6,-0.07 1.08,-0.07 0.7,0 1.35,0.2 0.65,0.2 1.14,0.61 0.49,0.41 0.78,1.06 0.29,0.65 0.29,1.55 v 4.06 q 0,0.92 0.56,1.3 z m -6.04,-1.5 q 0,0.94 1.08,0.94 0.56,0 1.26,-0.58 v -1.6 q -0.4,-0.02 -0.67,-0.03 -0.27,-0.01 -0.41,-0.01 -1.26,0 -1.26,1.28 z M 30.5,13.4 v 4.1 q 0,1.32 0.48,1.98 -0.76,0.68 -1.82,0.68 -1.04,0 -1.42,-0.48 -0.38,-0.48 -0.38,-1.46 v -4.26 q 0,-0.68 -0.18,-1 -0.18,-0.32 -0.7,-0.32 -0.3,0 -0.68,0.16 -0.38,0.16 -0.78,0.52 V 20 q -0.34,0.06 -0.74,0.09 -0.4,0.03 -0.82,0.03 -0.42,0 -0.82,-0.03 Q 22.24,20.06 21.9,20 v -9.98 l 0.14,-0.14 h 1.18 q 1.22,0 1.64,1.2 1.4,-1.24 2.78,-1.24 1.4,0 2.13,0.97 0.73,0.97 0.73,2.59 z m 5.78,-3.58 q 0.96,0 1.86,0.44 V 5.42 l 0.12,-0.14 h 1.22 q 0.96,0 1.33,0.42 0.37,0.42 0.37,1.46 v 9.96 q 0,1.06 0.56,1.44 -0.1,0.42 -0.38,0.9 -0.28,0.48 -0.58,0.7 -1.46,-0.04 -2.14,-1.12 -1.2,1.26 -2.88,1.26 -1.68,0 -2.58,-1.4 -0.9,-1.4 -0.9,-3.84 0,-1.2 0.31,-2.17 0.31,-0.97 0.85,-1.65 0.54,-0.68 1.27,-1.05 0.73,-0.37 1.57,-0.37 z m 0.4,7.96 q 0.82,0 1.46,-0.78 v -4.38 q -0.82,-0.48 -1.3,-0.48 -1.36,0 -1.36,3 0,2.64 1.2,2.64 z M 47.22,12.32 V 20 q -0.34,0.06 -0.74,0.09 -0.4,0.03 -0.82,0.03 -0.42,0 -0.83,-0.03 Q 44.42,20.06 44.08,20 v -6.62 q 0,-1.16 -0.94,-1.16 h -0.3 q -0.12,-0.38 -0.12,-1.06 0,-0.66 0.12,-1.12 Q 43.36,10 43.8,9.97 44.24,9.94 44.6,9.94 h 0.44 q 1.02,0 1.6,0.64 0.58,0.64 0.58,1.74 z M 43.72,6 q 0.58,-0.32 1.5,-0.32 0.94,0 1.46,0.32 0.24,0.54 0.24,1.16 0,0.62 -0.24,1.16 -0.58,0.3 -1.52,0.3 -0.94,0 -1.44,-0.3 -0.24,-0.54 -0.24,-1.16 0,-0.62 0.24,-1.16 z m 14.46,7.4 v 4.1 q 0,1.32 0.48,1.98 -0.76,0.68 -1.82,0.68 -1.04,0 -1.42,-0.48 -0.38,-0.48 -0.38,-1.46 v -4.26 q 0,-0.68 -0.18,-1 -0.18,-0.32 -0.7,-0.32 -0.3,0 -0.68,0.16 -0.38,0.16 -0.78,0.52 V 20 q -0.34,0.06 -0.74,0.09 -0.4,0.03 -0.82,0.03 -0.42,0 -0.82,-0.03 -0.4,-0.03 -0.74,-0.09 v -9.98 l 0.14,-0.14 h 1.18 q 1.22,0 1.64,1.2 1.4,-1.24 2.78,-1.24 1.4,0 2.13,0.97 0.73,0.97 0.73,2.59 z m 8.42,-2.74 q 0.68,-0.76 1.88,-0.8 0.32,0.24 0.61,0.72 0.29,0.48 0.35,0.88 -0.56,0.38 -0.56,1.44 v 5.28 q 0,1.84 -0.29,3.05 -0.29,1.21 -0.88,1.92 -0.59,0.71 -1.49,0.99 -0.9,0.28 -2.12,0.28 -2.06,0 -3.76,-0.66 0,-0.56 0.22,-1.22 0.22,-0.66 0.54,-1.04 1.34,0.6 2.72,0.6 2.02,0 2.02,-2.02 v -0.66 q -1.08,0.78 -2.28,0.78 -1.78,0 -2.69,-1.41 -0.91,-1.41 -0.91,-3.83 0,-1.22 0.31,-2.19 0.31,-0.97 0.85,-1.65 0.54,-0.68 1.25,-1.04 0.71,-0.36 1.51,-0.36 1.62,0 2.72,0.94 z M 65.84,17 v -4.28 q -0.7,-0.68 -1.32,-0.68 -1.36,0 -1.36,3 0,2.64 1.18,2.64 0.82,0 1.5,-0.68 z m 13.06,-0.98 0.5,1.46 q 0.4,1.32 0.96,1.7 -0.88,0.98 -2.1,0.98 -0.66,0 -1,-0.31 -0.34,-0.31 -0.6,-1.09 l -0.6,-1.72 Q 75.86,16.42 75.6,16.21 75.34,16 74.9,16 74.46,16 74.28,16.02 V 20 q -0.66,0.12 -1.52,0.12 -0.86,0 -1.52,-0.12 V 5.42 l 0.14,-0.14 h 1.2 q 0.94,0 1.32,0.42 0.38,0.42 0.38,1.46 v 6.28 h 0.32 q 0.36,0 0.56,-0.36 l 1.04,-2 q 0.56,-1.14 1.76,-1.14 0.58,0 1.74,0.04 l 0.12,0.16 -1.54,2.98 q -0.4,0.76 -1.02,1.18 1.2,0.44 1.64,1.72 z m 6.3,-3.7 V 20 q -0.34,0.06 -0.74,0.09 -0.4,0.03 -0.82,0.03 -0.42,0 -0.83,-0.03 Q 82.4,20.06 82.06,20 v -6.62 q 0,-1.16 -0.94,-1.16 h -0.3 q -0.12,-0.38 -0.12,-1.06 0,-0.66 0.12,-1.12 0.52,-0.04 0.96,-0.07 0.44,-0.03 0.8,-0.03 h 0.44 q 1.02,0 1.6,0.64 0.58,0.64 0.58,1.74 z M 81.7,6 q 0.58,-0.32 1.5,-0.32 0.94,0 1.46,0.32 0.24,0.54 0.24,1.16 0,0.62 -0.24,1.16 -0.58,0.3 -1.52,0.3 -0.94,0 -1.44,-0.3 Q 81.46,7.78 81.46,7.16 81.46,6.54 81.7,6 Z m 11.6,4 q 0.12,0.56 0.12,1.12 0,0.56 -0.12,1.1 l -2.38,-0.04 v 4.6 q 0,0.94 0.88,0.94 h 1.12 q 0.26,0.72 0.26,1.32 0,0.6 -0.08,0.86 -1.48,0.2 -2.72,0.2 -2.52,0 -2.52,-2.78 V 12.2 l -1.56,0.02 q -0.14,-0.5 -0.14,-1.09 0,-0.59 0.14,-1.13 l 1.56,0.04 V 8.88 q 0,-1.02 0.39,-1.45 Q 88.64,7 89.56,7 h 1.22 l 0.14,0.14 v 2.9 z m 0.86,9.32 q 0.02,-0.52 0.27,-1.14 0.25,-0.62 0.59,-0.98 1.6,0.84 2.78,0.84 0.56,0 0.86,-0.19 0.3,-0.19 0.3,-0.51 0,-0.6 -0.92,-0.9 l -1.1,-0.42 q -2.5,-0.92 -2.5,-3 0,-1.52 1.05,-2.41 1.05,-0.89 2.83,-0.89 0.88,0 1.94,0.25 1.06,0.25 1.74,0.59 0.04,0.56 -0.22,1.23 -0.26,0.67 -0.64,0.95 -1.68,-0.76 -2.8,-0.76 -0.4,0 -0.61,0.18 -0.21,0.18 -0.21,0.46 0,0.48 0.76,0.76 l 1.24,0.44 q 2.66,0.94 2.66,3.22 0,1.5 -1.1,2.38 -1.1,0.88 -3.14,0.88 -2.04,0 -3.78,-0.98 z m 9.76,-1.9 q 0.34,-0.18 0.74,-0.27 0.4,-0.09 0.82,-0.09 0.92,0 1.58,0.36 0.24,0.52 0.24,1.22 0,0.34 -0.06,0.65 -0.06,0.31 -0.18,0.55 -0.56,0.38 -1.58,0.38 -1,0 -1.56,-0.38 -0.12,-0.24 -0.18,-0.55 -0.06,-0.31 -0.06,-0.65 0,-0.7 0.24,-1.22 z m 10.62,-2.98 v -0.26 q 0,-1.12 -0.24,-1.63 -0.24,-0.51 -0.9,-0.51 -0.7,0 -0.98,0.69 -0.28,0.69 -0.28,2.29 0,0.8 0.11,1.34 0.11,0.54 0.32,0.87 0.21,0.33 0.53,0.48 0.32,0.15 0.76,0.15 0.46,0 1.02,-0.2 0.56,-0.2 1.2,-0.64 0.18,0.1 0.37,0.29 0.19,0.19 0.35,0.43 0.16,0.24 0.28,0.51 0.12,0.27 0.18,0.51 -0.66,0.7 -1.72,1.12 -1.06,0.42 -2.16,0.42 -2.14,0 -3.28,-1.4 -1.14,-1.4 -1.14,-3.98 0,-1.32 0.37,-2.3 0.37,-0.98 0.98,-1.62 0.61,-0.64 1.4,-0.96 0.79,-0.32 1.65,-0.32 0.88,0 1.61,0.24 0.73,0.24 1.26,0.68 0.53,0.44 0.82,1.05 0.29,0.61 0.29,1.35 0,0.84 -0.49,1.18 -0.49,0.34 -1.21,0.34 -0.6,0 -1.1,-0.12 z M 126.1,10.9 q 1.44,1.44 1.44,4.12 0,1.2 -0.31,2.18 -0.31,0.98 -0.9,1.67 -0.59,0.69 -1.45,1.06 -0.86,0.37 -1.98,0.37 -1.12,0 -1.97,-0.38 -0.85,-0.38 -1.44,-1.07 -0.59,-0.69 -0.89,-1.67 -0.3,-0.98 -0.3,-2.16 0,-1.2 0.3,-2.17 0.3,-0.97 0.88,-1.67 0.58,-0.7 1.44,-1.08 0.86,-0.38 1.98,-0.38 1.98,0 3.2,1.18 z m -3.18,1.16 q -0.44,0 -0.71,0.21 -0.27,0.21 -0.43,0.57 -0.16,0.36 -0.22,0.83 -0.06,0.47 -0.06,1.01 0,0.84 0.05,1.45 0.05,0.61 0.2,1.02 0.15,0.41 0.42,0.61 0.27,0.2 0.71,0.2 0.88,0 1.16,-0.77 0.28,-0.77 0.28,-2.19 0,-1.44 -0.28,-2.19 -0.28,-0.75 -1.12,-0.75 z m 11.76,1.92 q 0,-1.34 -0.9,-1.34 -0.32,0 -0.65,0.19 -0.33,0.19 -0.67,0.49 V 20 q -0.34,0.06 -0.74,0.09 -0.4,0.03 -0.82,0.03 -0.42,0 -0.82,-0.03 -0.4,-0.03 -0.74,-0.09 v -9.98 l 0.14,-0.14 h 1.16 q 1.28,0 1.68,1.26 1.42,-1.3 2.76,-1.3 1.62,0 2.34,1.38 1.56,-1.38 2.96,-1.38 1.4,0 2.09,0.87 0.69,0.87 0.69,2.31 v 4.48 q 0,1.3 0.5,1.98 -0.76,0.68 -1.82,0.68 -1.04,0 -1.42,-0.48 -0.38,-0.48 -0.38,-1.46 v -4.26 q 0,-1.32 -0.94,-1.32 -0.58,0 -1.28,0.7 V 20 q -0.34,0.06 -0.74,0.09 -0.4,0.03 -0.82,0.03 -0.42,0 -0.83,-0.03 -0.41,-0.03 -0.75,-0.09 z"
       id="path3"
       style="fill:#4d4d4d" />
  </g>
  <g
     id="SvgjsG1789"
     featurekey="gqtJpI-0"
     transform="matrix(0.30143824,0,0,0.30143824,90.266309,148.91785)"
     fill="#c8e7ed"
     style="fill:#1a1a1a">
    <path
       d="m 16.644,6.441 c 0.11864,0 0.20339,0.10186 0.20339,0.23746 v 13.085 c 0,0.15254 -0.08475,0.23712 -0.22034,0.23712 h -0.88136 c -0.16949,0 -0.23729,-0.08458 -0.23729,-0.23712 v -10.61 l -6.1697,10.407 C 9.270903,19.6791 9.20311,19.72995 9.08446,19.72995 H 9.016663 c -0.10169,0 -0.18644,-0.05085 -0.25424,-0.16949 l -6.1525,-10.407 v 10.61 c 0,0.15254 -0.084746,0.23712 -0.22034,0.23712 h -0.88136 c -0.15254,0 -0.23729,-0.08458 -0.23729,-0.23712 v -13.102 c 0,-0.11881 0.067797,-0.22051 0.20339,-0.22051 h 0.81356 c 0.11864,0 0.18644,0.050847 0.25424,0.15271 l 6.5086,10.983 6.5254,-10.983 c 0.05085,-0.10186 0.11864,-0.15271 0.27119,-0.15271 h 0.79661 z M 43.057831,19.77983 C 43.125628,19.91542 43.09206,20 42.939521,20 h -1.0339 c -0.11864,0 -0.18644,-0.05085 -0.23729,-0.15254 l -1.1864,-2.5254 h -8.1864 l -1.1864,2.5254 C 31.058284,19.94915 30.990651,20 30.888791,20 h -1.0678 c -0.11864,0 -0.18644,-0.08458 -0.11864,-0.22017 l 6.3558,-13.271 c 0.0678,-0.11864 0.11864,-0.15254 0.20322,-0.15254 h 0.23745 c 0.08475,0 0.15254,0.033898 0.20339,0.15254 z m -10.1865,-3.67793 h 7.0339 l -3.5254,-7.4576 z m 32.362347,3.45742 c 0.18644,0.18644 0.0673,0.44085 -0.1871,0.44085 h -0.96594 c -0.11864,0 -0.18644,-0.03373 -0.28814,-0.13543 l -6.8136,-6.712 v 6.6271 c 0,0.13559 -0.0678,0.22017 -0.20339,0.22017 h -0.91525 c -0.13559,0 -0.22017,-0.08458 -0.22017,-0.22017 v -12.322 c 0,-0.30525 -0.0339,-0.52542 -0.0678,-0.76288 -0.01695,-0.15254 0.0339,-0.25424 0.16949,-0.25424 h 0.77966 c 0.28814,0 0.45763,0.15254 0.45763,0.42373 v 6 l 6.1697,-6.2881 c 0.08475,-0.084746 0.15254,-0.13559 0.27119,-0.13559 h 1.0339 c 0.25424,0 0.32203,0.25424 0.16966,0.4239 l -6.0678,6.1524 z M 86.7659,7.729 79.4103,7.7294966 v 4.9659004 h 4.5424 c 0.15254,0 0.23729,0.0678 0.23729,0.23729 v 0.81339 c 0,0.15254 -0.08475,0.22034 -0.23729,0.22034 h -4.5424 v 4.7458 h 7.3559 c 0.15254,0 0.23712,0.08475 0.23712,0.23712 v 0.81356 c 0,0.16949 -0.0678,0.23712 -0.23729,0.23712 h -8.4746 c -0.15254,0 -0.22034,-0.08458 -0.22034,-0.22017 V 6.6608466 c 0,-0.15254 0.08475,-0.22034 0.22034,-0.22034 h 8.4746 c 0.15254,0 0.23712,0.084746 0.23712,0.22034 v 0.84746 c 0,0.13559 -0.0678,0.22034 -0.23729,0.22034 z m 36.72559,10.983 c 0.13559,0 0.20339,0.08491 0.20339,0.23729 v 0.83051 c 0,0.15254 -0.0678,0.22017 -0.20339,0.22017 h -7.9492 c -0.15254,0 -0.20339,-0.10153 -0.20339,-0.22017 V 6.6608 c 0,-0.15254 0.0678,-0.22034 0.22034,-0.22034 h 0.89831 c 0.13559,0 0.22034,0.067797 0.22034,0.22034 v 12.051 h 6.8136 z m 26.07482,1.06783 C 149.6341,19.91542 149.60053,20 149.448,20 h -1.0339 c -0.11864,0 -0.18644,-0.05085 -0.23729,-0.15254 l -1.1864,-2.5254 h -8.1864 l -1.1864,2.5254 C 137.56676,19.94915 137.49913,20 137.39727,20 h -1.0678 c -0.11864,0 -0.18644,-0.08458 -0.11864,-0.22017 l 6.3558,-13.271 c 0.0678,-0.11864 0.11864,-0.15254 0.20322,-0.15254 h 0.23745 c 0.0847,0 0.15254,0.033898 0.20339,0.15254 z m -10.1865,-3.67793 h 7.0339 l -3.5254,-7.4576 z M 173.92885,6.441 c 0.11864,0 0.20356,0.067631 0.20356,0.18627 v 13.186 c 0,0.11881 -0.0847,0.18644 -0.20339,0.18644 h -0.35593 c -0.25441,0 -0.49169,-0.16933 -0.81373,-0.52525 l -8.9153,-10.525 v 10.831 c 0,0.13559 -0.0848,0.22017 -0.22034,0.22017 h -0.88136 c -0.15254,0 -0.22034,-0.08458 -0.22034,-0.22017 v -13.136 c 0,-0.11864 0.0678,-0.20339 0.20339,-0.20339 h 0.55932 c 0.11864,0 0.20339,0.050847 0.32203,0.18644 l 9.2034,10.932 v -10.932 c 0,-0.11864 0.0678,-0.18644 0.18644,-0.18644 h 0.9322 z m 18.15913,0 c 4.6271,0 6.9153,3.4239 6.9153,6.6949 0,3.4576 -2.3051,6.8642 -6.8644,6.8642 h -4.6271 c -0.15254,0 -0.22034,-0.08458 -0.22034,-0.22017 v -13.119 c 0,-0.15254 0.0678,-0.22034 0.22034,-0.22034 h 4.5763 z m 0.1186,12.2712 c 3.5422,0 5.4576,-2.7798 5.4407,-5.5764 0,-2.7797 -1.8644,-5.4066 -5.4407,-5.4066 h -3.5932 l 0.0169,10.983 z M 213.24748,6.441 h -0.86441 c -0.15254,0 -0.22034,0.067797 -0.22034,0.22034 v 13.119 c 0,0.13559 0.0678,0.22017 0.22034,0.22017 h 0.88136 c 0.11864,0 0.20339,-0.08458 0.20339,-0.22017 v -13.119 c 0,-0.15254 -0.0847,-0.22034 -0.22034,-0.22034 z m 25.12544,0 c 0.11864,0 0.20356,0.067631 0.20356,0.18627 v 13.186 c 0,0.11881 -0.0848,0.18644 -0.20339,0.18644 h -0.35593 c -0.25441,0 -0.49169,-0.16933 -0.81373,-0.52525 l -8.9153,-10.525 v 10.831 c 0,0.13559 -0.0847,0.22017 -0.22034,0.22017 h -0.88136 c -0.15254,0 -0.22034,-0.08458 -0.22034,-0.22017 v -13.136 c 0,-0.11864 0.0678,-0.20339 0.20339,-0.20339 h 0.55932 c 0.11864,0 0.20339,0.050847 0.32203,0.18644 l 9.2034,10.932 v -10.932 c 0,-0.11864 0.0678,-0.18644 0.18644,-0.18644 h 0.9322 z m 24.85372,8.1014 c 0.16949,0 0.23746,0.06763 0.23746,0.23712 v 3.0678 h -0.0169 c 0,0.0678 -0.0508,0.16949 -0.13559,0.25424 -1.2544,1.2542 -2.8814,2.0168 -4.8983,2.0168 -3.8136,0 -6.9322,-3.0168 -6.9322,-6.8812 0,-3.8475 3.1186,-6.9153 6.9322,-6.9153 1.9322,0 3.661,0.74576 4.9322,2.0169 0.15254,0.15254 0.16949,0.27119 0.0678,0.35593 l -0.71186,0.59322 c -0.11864,0.10169 -0.22034,0.10169 -0.33898,-0.016949 -0.71186,-0.74559 -2.1186,-1.6608 -3.8475,-1.6608 -3.678,0 -5.7119,2.9831 -5.7119,5.6271 0,2.678 2.0339,5.5932 5.7119,5.5932 1.5932,0 2.8475,-0.74576 3.61,-1.4407 v -1.5763 h -3.5763 c -0.15254,0 -0.22034,-0.0678 -0.22034,-0.20339 v -0.83051 c 0,-0.16949 0.0678,-0.23729 0.22034,-0.23729 h 4.678 z M 296.81692,6.441 c 3.0846,0 4.6437,2.4407 4.6437,4.4576 0,2.0847 -1.5593,4.4746 -4.6439,4.4746 h -3.7966 v 4.3898 c 0,0.15254 -0.0678,0.23712 -0.20339,0.23712 h -0.91525 c -0.15238,0 -0.22017,-0.08458 -0.22017,-0.23712 V 6.661 c 0,-0.15254 0.0678,-0.22034 0.22017,-0.22034 h 4.9154 z m -0.051,7.6609 c 2.1864,0 3.3559,-1.6102 3.3559,-3.2034 0,-1.5932 -1.1695,-3.1695 -3.3559,-3.1695 h -3.7456 v 6.3729 z m 28.88852,5.67793 C 325.72224,19.91542 325.68867,20 325.53613,20 h -1.0339 c -0.11864,0 -0.18644,-0.05085 -0.23729,-0.15254 l -1.1864,-2.5254 h -8.1864 l -1.1864,2.5254 C 313.65489,19.94915 313.58726,20 313.4854,20 h -1.0678 c -0.11864,0 -0.18644,-0.08458 -0.11864,-0.22017 l 6.3558,-13.271 c 0.0678,-0.11864 0.11864,-0.15254 0.20322,-0.15254 h 0.23745 c 0.0847,0 0.15254,0.033898 0.20339,0.15254 z m -10.1865,-3.67793 h 7.0339 l -3.5254,-7.4576 z m 33.51464,-1.5595 c 0.16949,0 0.23746,0.06763 0.23746,0.23712 v 3.0678 h -0.017 c 0,0.0678 -0.0508,0.16949 -0.13559,0.25424 -1.2544,1.2542 -2.8814,2.0168 -4.8983,2.0168 -3.8136,0 -6.9322,-3.0168 -6.9322,-6.8812 0,-3.8475 3.1186,-6.9153 6.9322,-6.9153 1.9322,0 3.661,0.74576 4.9322,2.0169 0.15254,0.15254 0.16949,0.27119 0.0678,0.35593 l -0.71186,0.59322 c -0.11864,0.10169 -0.22034,0.10169 -0.33898,-0.016949 -0.71186,-0.74559 -2.1186,-1.6608 -3.8475,-1.6608 -3.678,0 -5.7119,2.9831 -5.7119,5.6271 0,2.678 2.0339,5.5932 5.7119,5.5932 1.5932,0 2.8475,-0.74576 3.61,-1.4407 v -1.5763 h -3.5763 c -0.15254,0 -0.22034,-0.0678 -0.22034,-0.20339 v -0.83051 c 0,-0.16949 0.0678,-0.23729 0.22034,-0.23729 h 4.678 z m 21.87146,-6.8134 -7.3556,4.966e-4 v 4.9659004 h 4.5424 c 0.15254,0 0.23729,0.0678 0.23729,0.23729 v 0.81339 c 0,0.15254 -0.0847,0.22034 -0.23729,0.22034 h -4.5424 v 4.7458 h 7.3559 c 0.15254,0 0.23712,0.08475 0.23712,0.23712 v 0.81356 c 0,0.16949 -0.0678,0.23712 -0.23729,0.23712 h -8.4746 c -0.15254,0 -0.22034,-0.08458 -0.22034,-0.22017 V 6.6608466 c 0,-0.15254 0.0847,-0.22034 0.22034,-0.22034 h 8.4746 c 0.15254,0 0.23712,0.084746 0.23712,0.22034 v 0.84746 c 0,0.13559 -0.0678,0.22034 -0.23729,0.22034 z m 29.91208,-1.288 h -0.86441 c -0.15254,0 -0.22034,0.067797 -0.22034,0.22034 v 13.119 c 0,0.13559 0.0678,0.22017 0.22034,0.22017 h 0.88136 c 0.11864,0 0.20339,-0.08458 0.20339,-0.22017 v -13.119 c 0,-0.15254 -0.0847,-0.22034 -0.22034,-0.22034 z m 25.12544,0 c 0.11864,0 0.20356,0.067631 0.20356,0.18627 v 13.186 c 0,0.11881 -0.0847,0.18644 -0.20339,0.18644 h -0.35593 c -0.25441,0 -0.49169,-0.16933 -0.81373,-0.52525 l -8.9153,-10.525 v 10.831 c 0,0.13559 -0.0847,0.22017 -0.22034,0.22017 h -0.88136 c -0.15254,0 -0.22034,-0.08458 -0.22034,-0.22017 v -13.136 c 0,-0.11864 0.0678,-0.20339 0.20339,-0.20339 h 0.55932 c 0.11864,0 0.20339,0.050847 0.32203,0.18644 l 9.2034,10.932 v -10.932 c 0,-0.11864 0.0678,-0.18644 0.18644,-0.18644 h 0.9322 z m 44.35244,0 c 0.11864,0 0.20339,0.10186 0.20339,0.23746 v 13.085 c 0,0.15254 -0.0847,0.23712 -0.22034,0.23712 h -0.88136 c -0.16949,0 -0.23729,-0.08458 -0.23729,-0.23712 v -10.61 l -6.1697,10.407 c -0.0678,0.11864 -0.13559,0.16949 -0.25424,0.16949 h -0.0678 c -0.10169,0 -0.18644,-0.05085 -0.25424,-0.16949 l -6.1525,-10.407 v 10.61 c 0,0.15254 -0.0847,0.23712 -0.22034,0.23712 h -0.88136 c -0.15254,0 -0.23729,-0.08458 -0.23729,-0.23712 v -13.102 c 0,-0.11881 0.0678,-0.22051 0.20339,-0.22051 h 0.81356 c 0.11864,0 0.18644,0.050847 0.25424,0.15271 l 6.5086,10.983 6.5254,-10.983 c 0.0508,-0.10186 0.11864,-0.15271 0.27119,-0.15271 h 0.79661 z m 14.78653,0 h -0.86441 c -0.15254,0 -0.22034,0.067797 -0.22034,0.22034 v 13.119 c 0,0.13559 0.0678,0.22017 0.22034,0.22017 h 0.88136 c 0.11864,0 0.20339,-0.08458 0.20339,-0.22017 v -13.119 c 0,-0.15254 -0.0848,-0.22034 -0.22034,-0.22034 z m 25.12544,0 c 0.11864,0 0.20356,0.067631 0.20356,0.18627 v 13.186 c 0,0.11881 -0.0847,0.18644 -0.20339,0.18644 h -0.35593 c -0.25441,0 -0.49169,-0.16933 -0.81373,-0.52525 l -8.9153,-10.525 v 10.831 c 0,0.13559 -0.0848,0.22017 -0.22034,0.22017 h -0.88136 c -0.15254,0 -0.22034,-0.08458 -0.22034,-0.22017 v -13.136 c 0,-0.11864 0.0678,-0.20339 0.20339,-0.20339 h 0.55932 c 0.11864,0 0.20339,0.050847 0.32203,0.18644 l 9.2034,10.932 v -10.932 c 0,-0.11864 0.0678,-0.18644 0.18644,-0.18644 h 0.9322 z m 23.98972,0 h -0.89797 c -0.16949,0 -0.23729,0.050847 -0.23729,0.22051 v 8.1524 c 0,2.8305 -2.1186,4.0169 -4.0341,4.0169 -1.8644,0 -3.9492,-1.1864 -3.9492,-4.0169 v -8.1524 c 0,-0.15254 -0.0678,-0.22034 -0.22034,-0.22034 h -0.88136 c -0.16949,0 -0.23729,0.067797 -0.23729,0.22034 v 8.3388 c 0.0168,2.7292 1.9659,5.1186 5.288,5.1186 3.339,0 5.3559,-2.3895 5.3729,-5.1186 v -8.3388 c 0,-0.16966 -0.0678,-0.22051 -0.20339,-0.22051 z m 23.34609,0 c 0.15254,0 0.22051,0.067797 0.22051,0.22034 V 7.5088 c 0,0.13559 -0.0678,0.22034 -0.22034,0.22034 h -4.3729 v 12.034 c 0,0.15254 -0.0678,0.23712 -0.20339,0.23712 h -0.67797 c -0.30508,0 -0.45763,-0.18644 -0.45763,-0.47441 v -11.797 h -4.3729 c -0.15254,0 -0.23729,-0.084746 -0.23729,-0.22034 V 6.678 c 0,-0.16949 0.0848,-0.23729 0.23729,-0.23729 h 10.085 z m 21.81988,1.288 -7.3556,4.966e-4 v 4.9659004 h 4.5424 c 0.15254,0 0.23729,0.0678 0.23729,0.23729 v 0.81339 c 0,0.15254 -0.0847,0.22034 -0.23729,0.22034 h -4.5424 v 4.7458 h 7.3559 c 0.15254,0 0.23712,0.08475 0.23712,0.23712 v 0.81356 c 0,0.16949 -0.0678,0.23712 -0.23729,0.23712 h -8.4746 c -0.15254,0 -0.22034,-0.08458 -0.22034,-0.22017 V 6.6608466 c 0,-0.15254 0.0847,-0.22034 0.22034,-0.22034 h 8.4746 c 0.15254,0 0.23712,0.084746 0.23712,0.22034 v 0.84746 c 0,0.13559 -0.0678,0.22034 -0.23729,0.22034 z"
       id="path4"
       style="fill:#1a1a1a" />
  </g>
  <g
     id="g7"
     featurekey="phAakL-0"
     transform="matrix(0.90789138,0,0,0.90789138,132.61994,20.969096)"
     fill="#c8e7ed"
     style="fill:#d45500">
    <g
       id="g6"
       style="fill:#d45500">
      <path
         d="M 73.4,68.1 90,64 45.8,45.8 64,90 68.2,73.4 80.6,85.8 c 0.7,0.7 1.8,0.7 2.4,0 L 85.8,83 c 0.7,-0.7 0.7,-1.8 0,-2.4 z"
         id="path5"
         style="fill:#d45500" />
      <path
         d="m 54.6,76.1 c 0.3,-0.4 0.6,-0.8 0.8,-1.2 l -2.1,-5.1 c -2.3,4.8 -5.1,7.6 -7.5,7.6 -2.5,0 -5.4,-3 -7.7,-8 -1.1,-2.3 -2,-4.9 -2.6,-7.8 3.3,0.5 6.8,0.7 10.4,0.7 1.5,0 3,0 4.4,-0.1 L 48.6,58 c -0.9,0 -1.8,0 -2.7,0 C 42,58 38.2,57.7 34.6,57.1 34,53.5 33.7,49.7 33.7,45.8 c 0,-3.9 0.3,-7.7 0.9,-11.3 3.6,-0.6 7.4,-0.9 11.3,-0.9 3.9,0 7.7,0.3 11.3,0.9 0.6,3.6 0.9,7.4 0.9,11.3 0,0.9 0,1.8 0,2.6 l 4.2,1.7 c 0.1,-1.4 0.1,-2.9 0.1,-4.4 0,-3.6 -0.2,-7.1 -0.7,-10.4 2.8,0.7 5.4,1.6 7.8,2.6 5,2.3 8,5.2 8,7.7 0,2.5 -2.8,5.3 -7.5,7.5 l 5.1,2.1 c 0.4,-0.3 0.8,-0.5 1.2,-0.8 -0.1,0.4 -0.2,0.8 -0.4,1.1 l 4,1.6 C 81.1,53.5 81.8,49.6 81.8,45.5 81.6,26 65.6,10 45.8,10 26,10 10,26 10,45.8 c 0,19.8 16,35.8 35.8,35.8 4.1,0 8,-0.7 11.6,-1.9 l -1.6,-4 c -0.4,0.1 -0.8,0.2 -1.2,0.4 z M 68.1,23.5 c 3.8,3.8 6.5,8.4 8,13.5 -3.7,-2.7 -9,-4.8 -15.3,-6.2 -1.3,-6.3 -3.5,-11.6 -6.2,-15.3 5,1.5 9.6,4.2 13.5,8 z M 45.8,14.3 c 2.5,0 5.4,3 7.7,8 1.1,2.3 2,4.9 2.6,7.8 -3.3,-0.5 -6.8,-0.7 -10.4,-0.7 -3.6,0 -7.1,0.2 -10.4,0.7 0.7,-2.8 1.6,-5.4 2.6,-7.8 2.4,-5 5.3,-8 7.9,-8 z m -22.3,9.2 c 3.8,-3.8 8.4,-6.5 13.5,-8 -2.7,3.7 -4.8,9 -6.2,15.3 -6.3,1.3 -11.6,3.5 -15.3,6.2 1.5,-5 4.2,-9.6 8,-13.5 z m -1.2,14.6 c 2.3,-1.1 4.9,-2 7.8,-2.6 -0.5,3.3 -0.7,6.8 -0.7,10.4 0,3.6 0.2,7.1 0.7,10.4 -2.8,-0.7 -5.4,-1.6 -7.8,-2.6 -5,-2.3 -8,-5.2 -8,-7.7 0,-2.5 3,-5.6 8,-7.9 z m 1.2,30 c -3.8,-3.8 -6.5,-8.4 -8,-13.5 3.7,2.7 9,4.8 15.3,6.2 1.3,6.3 3.5,11.6 6.2,15.3 -5,-1.5 -9.7,-4.2 -13.5,-8 z"
         id="path6"
         style="fill:#d45500" />
    </g>
  </g>
</svg>
